<svg width="242" height="47" viewBox="0 0 242 47" fill="none" xmlns="http://www.w3.org/2000/svg">
<path d="M5.152 46.576C3.70133 46.576 2.592 46.1707 1.824 45.36C1.056 44.5493 0.672 43.4187 0.672 41.968V4.912C0.672 3.46133 1.07733 2.33066 1.888 1.52C2.74133 0.70933 3.89333 0.303997 5.344 0.303997C6.624 0.303997 7.62667 0.559998 8.352 1.072C9.12 1.54133 9.824 2.37333 10.464 3.568L25.248 30.576H23.072L37.856 3.568C38.496 2.37333 39.1787 1.54133 39.904 1.072C40.672 0.559998 41.6747 0.303997 42.912 0.303997C44.3627 0.303997 45.472 0.70933 46.24 1.52C47.0507 2.33066 47.456 3.46133 47.456 4.912V41.968C47.456 43.4187 47.072 44.5493 46.304 45.36C45.536 46.1707 44.4267 46.576 42.976 46.576C41.5253 46.576 40.3947 46.1707 39.584 45.36C38.816 44.5493 38.432 43.4187 38.432 41.968V16.048H39.84L27.936 37.36C27.424 38.1707 26.8693 38.7893 26.272 39.216C25.7173 39.6 24.9707 39.792 24.032 39.792C23.0933 39.792 22.3253 39.5787 21.728 39.152C21.1307 38.7253 20.5973 38.128 20.128 37.36L8.096 15.984H9.632V41.968C9.632 43.4187 9.248 44.5493 8.48 45.36C7.75467 46.1707 6.64533 46.576 5.152 46.576ZM70.8785 46.704C67.5078 46.704 64.5638 46.0427 62.0465 44.72C59.5718 43.3973 57.6518 41.4987 56.2865 39.024C54.9212 36.5493 54.2385 33.6267 54.2385 30.256C54.2385 27.7387 54.6225 25.4773 55.3905 23.472C56.1585 21.4667 57.2678 19.76 58.7185 18.352C60.2118 16.9013 61.9825 15.8133 64.0305 15.088C66.0785 14.32 68.3612 13.936 70.8785 13.936C74.2492 13.936 77.1718 14.5973 79.6465 15.92C82.1638 17.2427 84.1052 19.12 85.4705 21.552C86.8785 23.984 87.5825 26.8853 87.5825 30.256C87.5825 32.816 87.1772 35.0987 86.3665 37.104C85.5985 39.1093 84.4892 40.8373 83.0385 42.288C81.5878 43.7387 79.8172 44.848 77.7265 45.616C75.6785 46.3413 73.3958 46.704 70.8785 46.704ZM70.8785 39.472C72.2865 39.472 73.5025 39.1307 74.5265 38.448C75.5505 37.7653 76.3612 36.7627 76.9585 35.44C77.5558 34.0747 77.8545 32.3467 77.8545 30.256C77.8545 27.1413 77.2145 24.8587 75.9345 23.408C74.6545 21.9147 72.9692 21.168 70.8785 21.168C69.5132 21.168 68.2972 21.488 67.2305 22.128C66.2065 22.768 65.3958 23.7707 64.7985 25.136C64.2438 26.4587 63.9665 28.1653 63.9665 30.256C63.9665 33.3707 64.6065 35.696 65.8865 37.232C67.1665 38.7253 68.8305 39.472 70.8785 39.472ZM104.79 46.704C100.993 46.704 98.1553 45.6587 96.278 43.568C94.4007 41.4347 93.462 38.2773 93.462 34.096V5.232C93.462 3.61067 93.8673 2.39467 94.678 1.584C95.5313 0.730665 96.7473 0.303997 98.326 0.303997C99.862 0.303997 101.035 0.730665 101.846 1.584C102.699 2.39467 103.126 3.61067 103.126 5.232V33.712C103.126 35.4613 103.489 36.7627 104.214 37.616C104.982 38.4267 105.985 38.832 107.222 38.832C107.563 38.832 107.883 38.8107 108.182 38.768C108.481 38.7253 108.801 38.704 109.142 38.704C109.825 38.6187 110.294 38.832 110.55 39.344C110.849 39.8133 110.998 40.7733 110.998 42.224C110.998 43.504 110.742 44.4853 110.23 45.168C109.718 45.808 108.929 46.2347 107.862 46.448C107.435 46.4907 106.945 46.5333 106.39 46.576C105.835 46.6613 105.302 46.704 104.79 46.704ZM125.399 46.704C123.095 46.704 121.025 46.256 119.191 45.36C117.356 44.464 115.927 43.248 114.903 41.712C113.879 40.176 113.367 38.448 113.367 36.528C113.367 34.224 113.964 32.4107 115.159 31.088C116.353 29.7227 118.295 28.7627 120.983 28.208C123.671 27.6107 127.233 27.312 131.671 27.312H135.063V32.304H131.735C129.559 32.304 127.788 32.432 126.423 32.688C125.1 32.9013 124.14 33.2853 123.543 33.84C122.988 34.3947 122.711 35.1627 122.711 36.144C122.711 37.3387 123.116 38.32 123.927 39.088C124.78 39.856 125.996 40.24 127.575 40.24C128.812 40.24 129.9 39.9627 130.839 39.408C131.82 38.8107 132.588 38.0213 133.143 37.04C133.697 36.016 133.975 34.864 133.975 33.584V26.224C133.975 24.3467 133.548 23.024 132.695 22.256C131.841 21.4453 130.391 21.04 128.343 21.04C127.191 21.04 125.932 21.1893 124.567 21.488C123.244 21.744 121.772 22.192 120.151 22.832C119.212 23.2587 118.38 23.3653 117.655 23.152C116.929 22.896 116.375 22.4693 115.991 21.872C115.607 21.232 115.415 20.5493 115.415 19.824C115.415 19.056 115.628 18.3307 116.055 17.648C116.481 16.9227 117.185 16.3893 118.167 16.048C120.172 15.2373 122.049 14.6827 123.799 14.384C125.591 14.0853 127.233 13.936 128.727 13.936C132.012 13.936 134.7 14.4267 136.791 15.408C138.924 16.3467 140.524 17.8187 141.591 19.824C142.657 21.7867 143.191 24.3253 143.191 27.44V41.648C143.191 43.2267 142.807 44.4427 142.039 45.296C141.271 46.1493 140.161 46.576 138.711 46.576C137.26 46.576 136.129 46.1493 135.319 45.296C134.551 44.4427 134.167 43.2267 134.167 41.648V39.28L134.615 39.664C134.359 41.1147 133.804 42.3733 132.951 43.44C132.14 44.464 131.095 45.2747 129.815 45.872C128.535 46.4267 127.063 46.704 125.399 46.704ZM155.264 46.576C153.685 46.576 152.469 46.1493 151.616 45.296C150.805 44.4427 150.4 43.2267 150.4 41.648V18.928C150.4 17.3493 150.805 16.1547 151.616 15.344C152.469 14.4907 153.642 14.064 155.135 14.064C156.672 14.064 157.845 14.4907 158.656 15.344C159.466 16.1547 159.872 17.3493 159.872 18.928V22.576L159.168 20.464C160.149 18.3733 161.6 16.7733 163.52 15.664C165.482 14.512 167.701 13.936 170.176 13.936C172.693 13.936 174.762 14.4267 176.384 15.408C178.005 16.3467 179.221 17.7973 180.032 19.76C180.842 21.68 181.248 24.1333 181.248 27.12V41.648C181.248 43.2267 180.821 44.4427 179.968 45.296C179.157 46.1493 177.962 46.576 176.384 46.576C174.848 46.576 173.653 46.1493 172.8 45.296C171.989 44.4427 171.584 43.2267 171.584 41.648V27.568C171.584 25.392 171.178 23.8347 170.368 22.896C169.6 21.9147 168.405 21.424 166.784 21.424C164.736 21.424 163.093 22.064 161.856 23.344C160.661 24.624 160.064 26.3307 160.064 28.464V41.648C160.064 44.9333 158.464 46.576 155.264 46.576ZM199.086 46.704C196.782 46.704 194.713 46.256 192.878 45.36C191.043 44.464 189.614 43.248 188.59 41.712C187.566 40.176 187.054 38.448 187.054 36.528C187.054 34.224 187.651 32.4107 188.846 31.088C190.041 29.7227 191.982 28.7627 194.67 28.208C197.358 27.6107 200.921 27.312 205.358 27.312H208.75V32.304H205.422C203.246 32.304 201.475 32.432 200.11 32.688C198.787 32.9013 197.827 33.2853 197.23 33.84C196.675 34.3947 196.398 35.1627 196.398 36.144C196.398 37.3387 196.803 38.32 197.614 39.088C198.467 39.856 199.683 40.24 201.262 40.24C202.499 40.24 203.587 39.9627 204.526 39.408C205.507 38.8107 206.275 38.0213 206.83 37.04C207.385 36.016 207.662 34.864 207.662 33.584V26.224C207.662 24.3467 207.235 23.024 206.382 22.256C205.529 21.4453 204.078 21.04 202.03 21.04C200.878 21.04 199.619 21.1893 198.254 21.488C196.931 21.744 195.459 22.192 193.838 22.832C192.899 23.2587 192.067 23.3653 191.342 23.152C190.617 22.896 190.062 22.4693 189.678 21.872C189.294 21.232 189.102 20.5493 189.102 19.824C189.102 19.056 189.315 18.3307 189.742 17.648C190.169 16.9227 190.873 16.3893 191.854 16.048C193.859 15.2373 195.737 14.6827 197.486 14.384C199.278 14.0853 200.921 13.936 202.414 13.936C205.699 13.936 208.387 14.4267 210.478 15.408C212.611 16.3467 214.211 17.8187 215.278 19.824C216.345 21.7867 216.878 24.3253 216.878 27.44V41.648C216.878 43.2267 216.494 44.4427 215.726 45.296C214.958 46.1493 213.849 46.576 212.398 46.576C210.947 46.576 209.817 46.1493 209.006 45.296C208.238 44.4427 207.854 43.2267 207.854 41.648V39.28L208.302 39.664C208.046 41.1147 207.491 42.3733 206.638 43.44C205.827 44.464 204.782 45.2747 203.502 45.872C202.222 46.4267 200.75 46.704 199.086 46.704Z" fill="white"/>
<path d="M232.951 46.48C230.391 46.48 228.343 45.712 226.807 44.176C225.335 42.64 224.599 40.656 224.599 38.224C224.599 35.856 225.335 33.936 226.807 32.464C228.343 30.928 230.391 30.16 232.951 30.16C235.511 30.16 237.495 30.928 238.903 32.464C240.375 33.936 241.111 35.856 241.111 38.224C241.111 40.656 240.375 42.64 238.903 44.176C237.495 45.712 235.511 46.48 232.951 46.48Z" fill="#FF4C60"/>
</svg>
