<svg width="119" height="24" viewBox="0 0 119 24" fill="none" xmlns="http://www.w3.org/2000/svg">
<path d="M2.576 23.288C1.85067 23.288 1.296 23.0853 0.912 22.68C0.528 22.2747 0.336 21.7093 0.336 20.984V2.456C0.336 1.73067 0.538667 1.16533 0.944 0.759998C1.37067 0.354665 1.94667 0.151999 2.672 0.151999C3.312 0.151999 3.81333 0.279999 4.176 0.535999C4.56 0.770665 4.912 1.18667 5.232 1.784L12.624 15.288H11.536L18.928 1.784C19.248 1.18667 19.5893 0.770665 19.952 0.535999C20.336 0.279999 20.8373 0.151999 21.456 0.151999C22.1813 0.151999 22.736 0.354665 23.12 0.759998C23.5253 1.16533 23.728 1.73067 23.728 2.456V20.984C23.728 21.7093 23.536 22.2747 23.152 22.68C22.768 23.0853 22.2133 23.288 21.488 23.288C20.7627 23.288 20.1973 23.0853 19.792 22.68C19.408 22.2747 19.216 21.7093 19.216 20.984V8.024H19.92L13.968 18.68C13.712 19.0853 13.4347 19.3947 13.136 19.608C12.8587 19.8 12.4853 19.896 12.016 19.896C11.5467 19.896 11.1627 19.7893 10.864 19.576C10.5653 19.3627 10.2987 19.064 10.064 18.68L4.048 7.992H4.816V20.984C4.816 21.7093 4.624 22.2747 4.24 22.68C3.87733 23.0853 3.32267 23.288 2.576 23.288ZM35.4392 23.352C33.7539 23.352 32.2819 23.0213 31.0233 22.36C29.7859 21.6987 28.8259 20.7493 28.1432 19.512C27.4606 18.2747 27.1193 16.8133 27.1193 15.128C27.1193 13.8693 27.3113 12.7387 27.6953 11.736C28.0793 10.7333 28.6339 9.88 29.3593 9.176C30.1059 8.45067 30.9913 7.90667 32.0153 7.544C33.0393 7.16 34.1806 6.968 35.4392 6.968C37.1246 6.968 38.5859 7.29867 39.8233 7.96C41.0819 8.62133 42.0526 9.56 42.7353 10.776C43.4393 11.992 43.7913 13.4427 43.7913 15.128C43.7913 16.408 43.5886 17.5493 43.1833 18.552C42.7993 19.5547 42.2446 20.4187 41.5193 21.144C40.7939 21.8693 39.9086 22.424 38.8633 22.808C37.8393 23.1707 36.6979 23.352 35.4392 23.352ZM35.4392 19.736C36.1433 19.736 36.7513 19.5653 37.2633 19.224C37.7753 18.8827 38.1806 18.3813 38.4793 17.72C38.7779 17.0373 38.9273 16.1733 38.9273 15.128C38.9273 13.5707 38.6073 12.4293 37.9673 11.704C37.3273 10.9573 36.4846 10.584 35.4392 10.584C34.7566 10.584 34.1486 10.744 33.6153 11.064C33.1033 11.384 32.6979 11.8853 32.3993 12.568C32.1219 13.2293 31.9833 14.0827 31.9833 15.128C31.9833 16.6853 32.3033 17.848 32.9433 18.616C33.5833 19.3627 34.4153 19.736 35.4392 19.736ZM52.395 23.352C50.4963 23.352 49.0777 22.8293 48.139 21.784C47.2003 20.7173 46.731 19.1387 46.731 17.048V2.616C46.731 1.80533 46.9337 1.19733 47.339 0.792C47.7657 0.365332 48.3737 0.151999 49.163 0.151999C49.931 0.151999 50.5177 0.365332 50.923 0.792C51.3497 1.19733 51.563 1.80533 51.563 2.616V16.856C51.563 17.7307 51.7443 18.3813 52.107 18.808C52.491 19.2133 52.9923 19.416 53.611 19.416C53.7817 19.416 53.9417 19.4053 54.091 19.384C54.2403 19.3627 54.4003 19.352 54.571 19.352C54.9123 19.3093 55.147 19.416 55.275 19.672C55.4243 19.9067 55.499 20.3867 55.499 21.112C55.499 21.752 55.371 22.2427 55.115 22.584C54.859 22.904 54.4643 23.1173 53.931 23.224C53.7177 23.2453 53.4723 23.2667 53.195 23.288C52.9177 23.3307 52.651 23.352 52.395 23.352ZM62.6993 23.352C61.5473 23.352 60.5126 23.128 59.5953 22.68C58.6779 22.232 57.9633 21.624 57.4513 20.856C56.9393 20.088 56.6833 19.224 56.6833 18.264C56.6833 17.112 56.9819 16.2053 57.5793 15.544C58.1766 14.8613 59.1473 14.3813 60.4913 14.104C61.8353 13.8053 63.6166 13.656 65.8353 13.656H67.5313V16.152H65.8673C64.7793 16.152 63.8939 16.216 63.2113 16.344C62.5499 16.4507 62.0699 16.6427 61.7713 16.92C61.4939 17.1973 61.3553 17.5813 61.3553 18.072C61.3553 18.6693 61.5579 19.16 61.9633 19.544C62.3899 19.928 62.9979 20.12 63.7873 20.12C64.4059 20.12 64.9499 19.9813 65.4193 19.704C65.9099 19.4053 66.2939 19.0107 66.5713 18.52C66.8486 18.008 66.9873 17.432 66.9873 16.792V13.112C66.9873 12.1733 66.7739 11.512 66.3473 11.128C65.9206 10.7227 65.1953 10.52 64.1713 10.52C63.5953 10.52 62.9659 10.5947 62.2833 10.744C61.6219 10.872 60.8859 11.096 60.0753 11.416C59.6059 11.6293 59.1899 11.6827 58.8273 11.576C58.4646 11.448 58.1873 11.2347 57.9953 10.936C57.8033 10.616 57.7073 10.2747 57.7073 9.912C57.7073 9.528 57.8139 9.16533 58.0273 8.824C58.2406 8.46133 58.5926 8.19467 59.0833 8.024C60.0859 7.61867 61.0246 7.34133 61.8993 7.192C62.7953 7.04267 63.6166 6.968 64.3633 6.968C66.0059 6.968 67.3499 7.21333 68.3953 7.704C69.4619 8.17333 70.2619 8.90933 70.7953 9.912C71.3286 10.8933 71.5953 12.1627 71.5953 13.72V20.824C71.5953 21.6133 71.4033 22.2213 71.0193 22.648C70.6353 23.0747 70.0806 23.288 69.3553 23.288C68.6299 23.288 68.0646 23.0747 67.6593 22.648C67.2753 22.2213 67.0833 21.6133 67.0833 20.824V19.64L67.3073 19.832C67.1793 20.5573 66.9019 21.1867 66.4753 21.72C66.0699 22.232 65.5473 22.6373 64.9073 22.936C64.2673 23.2133 63.5313 23.352 62.6993 23.352ZM77.6318 23.288C76.8424 23.288 76.2344 23.0747 75.8078 22.648C75.4024 22.2213 75.1998 21.6133 75.1998 20.824V9.464C75.1998 8.67467 75.4024 8.07733 75.8078 7.672C76.2344 7.24533 76.8211 7.032 77.5677 7.032C78.3358 7.032 78.9224 7.24533 79.3278 7.672C79.7331 8.07733 79.9358 8.67467 79.9358 9.464V11.288L79.5838 10.232C80.0744 9.18667 80.7998 8.38667 81.7598 7.832C82.7411 7.256 83.8504 6.968 85.0878 6.968C86.3464 6.968 87.3811 7.21333 88.1918 7.704C89.0024 8.17333 89.6104 8.89867 90.0158 9.88C90.4211 10.84 90.6238 12.0667 90.6238 13.56V20.824C90.6238 21.6133 90.4104 22.2213 89.9838 22.648C89.5784 23.0747 88.9811 23.288 88.1918 23.288C87.4238 23.288 86.8264 23.0747 86.3998 22.648C85.9944 22.2213 85.7918 21.6133 85.7918 20.824V13.784C85.7918 12.696 85.5891 11.9173 85.1838 11.448C84.7998 10.9573 84.2024 10.712 83.3918 10.712C82.3678 10.712 81.5464 11.032 80.9278 11.672C80.3304 12.312 80.0318 13.1653 80.0318 14.232V20.824C80.0318 22.4667 79.2318 23.288 77.6318 23.288ZM99.543 23.352C98.391 23.352 97.3563 23.128 96.439 22.68C95.5217 22.232 94.807 21.624 94.295 20.856C93.783 20.088 93.527 19.224 93.527 18.264C93.527 17.112 93.8257 16.2053 94.423 15.544C95.0203 14.8613 95.991 14.3813 97.335 14.104C98.679 13.8053 100.46 13.656 102.679 13.656H104.375V16.152H102.711C101.623 16.152 100.738 16.216 100.055 16.344C99.3937 16.4507 98.9137 16.6427 98.615 16.92C98.3377 17.1973 98.199 17.5813 98.199 18.072C98.199 18.6693 98.4017 19.16 98.807 19.544C99.2337 19.928 99.8417 20.12 100.631 20.12C101.25 20.12 101.794 19.9813 102.263 19.704C102.754 19.4053 103.138 19.0107 103.415 18.52C103.692 18.008 103.831 17.432 103.831 16.792V13.112C103.831 12.1733 103.618 11.512 103.191 11.128C102.764 10.7227 102.039 10.52 101.015 10.52C100.439 10.52 99.8097 10.5947 99.127 10.744C98.4657 10.872 97.7297 11.096 96.919 11.416C96.4497 11.6293 96.0337 11.6827 95.671 11.576C95.3083 11.448 95.031 11.2347 94.839 10.936C94.647 10.616 94.551 10.2747 94.551 9.912C94.551 9.528 94.6577 9.16533 94.871 8.824C95.0843 8.46133 95.4363 8.19467 95.927 8.024C96.9297 7.61867 97.8683 7.34133 98.743 7.192C99.639 7.04267 100.46 6.968 101.207 6.968C102.85 6.968 104.194 7.21333 105.239 7.704C106.306 8.17333 107.106 8.90933 107.639 9.912C108.172 10.8933 108.439 12.1627 108.439 13.72V20.824C108.439 21.6133 108.247 22.2213 107.863 22.648C107.479 23.0747 106.924 23.288 106.199 23.288C105.474 23.288 104.908 23.0747 104.503 22.648C104.119 22.2213 103.927 21.6133 103.927 20.824V19.64L104.151 19.832C104.023 20.5573 103.746 21.1867 103.319 21.72C102.914 22.232 102.391 22.6373 101.751 22.936C101.111 23.2133 100.375 23.352 99.543 23.352Z" fill="white"/>
<path d="M115.428 23.2C114.361 23.2 113.508 22.88 112.868 22.24C112.254 21.6 111.948 20.7733 111.948 19.76C111.948 18.7733 112.254 17.9733 112.868 17.36C113.508 16.72 114.361 16.4 115.428 16.4C116.494 16.4 117.321 16.72 117.908 17.36C118.521 17.9733 118.828 18.7733 118.828 19.76C118.828 20.7733 118.521 21.6 117.908 22.24C117.321 22.88 116.494 23.2 115.428 23.2Z" fill="#FF4C60"/>
</svg>
