<svg xmlns="http://www.w3.org/2000/svg" version="1.1" xmlns:xlink="http://www.w3.org/1999/xlink" width="91" height="91" x="0" y="0" viewBox="0 0 510 510" style="enable-background:new 0 0 512 512" xml:space="preserve" fill-rule="evenodd" class=""><g><path fill="#a79ba7" d="M289.386 263c-4.415 0-8-3.585-8-8s3.585-8 8-8h170.429c4.415 0 8 3.585 8 8s-3.585 8-8 8zm-30.405-77.463c-4.415 0-8-3.585-8-8s3.585-8 8-8h115.271l21.922-30.91a8 8 0 0 1 6.526-3.371h59.412c4.416 0 8 3.584 8 8 0 4.415-3.584 8-8 8h-55.278l-21.922 30.909a8.001 8.001 0 0 1-6.526 3.372zm0 159.715c-4.415 0-8-3.584-8-8 0-4.415 3.585-8 8-8h119.405a8.001 8.001 0 0 1 6.526 3.372l21.922 30.91h55.278c4.416 0 8 3.584 8 8 0 4.415-3.584 8-8 8H402.7a8.001 8.001 0 0 1-6.526-3.372l-21.922-30.91z" opacity="1" data-original="#a79ba7" class=""></path><path fill="#fe646f" d="M471.964 231.964C484.678 231.964 495 242.286 495 255s-10.322 23.036-23.036 23.036c-12.715 0-23.037-10.322-23.037-23.036s10.322-23.036 23.037-23.036zm0-111.745c12.714 0 23.036 10.322 23.036 23.037 0 12.714-10.322 23.036-23.036 23.036-12.715 0-23.037-10.322-23.037-23.036 0-12.715 10.322-23.037 23.037-23.037zm0 274.351c-12.715 0-23.037-10.322-23.037-23.036 0-12.715 10.322-23.037 23.037-23.037 12.714 0 23.036 10.322 23.036 23.037 0 12.714-10.322 23.036-23.036 23.036z" opacity="1" data-original="#fe646f" class=""></path><path fill="#fd4755" d="M466.964 232.509a23.075 23.075 0 0 1 5-.545C484.678 231.964 495 242.286 495 255s-10.322 23.036-23.036 23.036c-1.717 0-3.39-.188-5-.545C477.277 275.205 485 265.997 485 255s-7.723-20.205-18.036-22.491zm0-111.745a23.075 23.075 0 0 1 5-.545c12.714 0 23.036 10.322 23.036 23.037 0 12.714-10.322 23.036-23.036 23.036-1.717 0-3.39-.188-5-.545C477.277 163.461 485 154.253 485 143.256c0-10.998-7.723-20.206-18.036-22.492zm0 228.278a23.075 23.075 0 0 1 5-.545c12.714 0 23.036 10.322 23.036 23.037 0 12.714-10.322 23.036-23.036 23.036-1.717 0-3.39-.188-5-.545C477.277 391.739 485 382.531 485 371.534c0-10.998-7.723-20.206-18.036-22.492z" opacity="1" data-original="#fd4755" class=""></path><path fill="#a79ba7" d="M323.761 435.702c4.415 0 8 3.585 8 8s-3.585 8-8 8H150.277a16.166 16.166 0 0 1-14-8.083L32.339 263.594a17.19 17.19 0 0 1 0-17.188L136.277 66.381a16.166 16.166 0 0 1 14-8.083h173.484c4.415 0 8 3.585 8 8s-3.585 8-8 8H150.277a.168.168 0 0 0-.144.083L46.196 254.406c-.213.368-.213.82 0 1.188l103.937 180.025c.03.051.085.083.144.083z" opacity="1" data-original="#a79ba7" class=""></path><path fill="#ffe177" d="M38.036 231.964c12.715 0 23.037 10.322 23.037 23.036s-10.322 23.036-23.037 23.036C25.322 278.036 15 267.714 15 255s10.322-23.036 23.036-23.036zM151.933 43.261c12.715 0 23.037 10.323 23.037 23.037s-10.322 23.036-23.037 23.036c-12.714 0-23.036-10.322-23.036-23.036s10.322-23.037 23.036-23.037zm165.918 0c12.714 0 23.036 10.323 23.036 23.037s-10.322 23.036-23.036 23.036-23.037-10.322-23.037-23.036 10.323-23.037 23.037-23.037zm0 377.405c12.714 0 23.036 10.322 23.036 23.036s-10.322 23.037-23.036 23.037-23.037-10.323-23.037-23.037 10.323-23.036 23.037-23.036zm-165.918 0c12.715 0 23.037 10.322 23.037 23.036s-10.322 23.037-23.037 23.037c-12.714 0-23.036-10.323-23.036-23.037s10.322-23.036 23.036-23.036z" opacity="1" data-original="#ffe177"></path><path fill="#ffd064" d="M33.036 232.509a23.088 23.088 0 0 1 5-.545c12.715 0 23.037 10.322 23.037 23.036s-10.322 23.036-23.037 23.036c-1.716 0-3.389-.188-5-.545C43.35 275.205 51.073 265.997 51.073 255s-7.723-20.205-18.037-22.491zM146.933 43.807a23.082 23.082 0 0 1 5-.546c12.715 0 23.037 10.323 23.037 23.037s-10.322 23.036-23.037 23.036c-1.716 0-3.39-.188-5-.545 10.314-2.286 18.037-11.494 18.037-22.491s-7.723-20.205-18.037-22.491zm165.918 0a23.075 23.075 0 0 1 5-.546c12.714 0 23.036 10.323 23.036 23.037s-10.322 23.036-23.036 23.036c-1.717 0-3.39-.188-5-.545 10.313-2.286 18.036-11.494 18.036-22.491s-7.723-20.205-18.036-22.491zm0 377.404a23.075 23.075 0 0 1 5-.545c12.714 0 23.036 10.322 23.036 23.036s-10.322 23.037-23.036 23.037c-1.717 0-3.39-.189-5-.546 10.313-2.286 18.036-11.494 18.036-22.491s-7.723-20.205-18.036-22.491zm-165.918 0a23.081 23.081 0 0 1 5-.545c12.715 0 23.037 10.322 23.037 23.036s-10.322 23.037-23.037 23.037c-1.716 0-3.39-.189-5-.546 10.314-2.286 18.037-11.494 18.037-22.491s-7.723-20.205-18.037-22.491z" opacity="1" data-original="#ffd064"></path><path fill="#fe646f" d="M266.196 271.985c5.811 5.72 8.989 13.438 8.989 21.609v66.097c0 3.995-.726 7.99-2.27 11.622-1.543 3.722-3.904 7.082-6.719 9.896-2.814 2.815-6.173 5.175-9.896 6.719-3.722 1.543-7.627 2.27-11.621 2.27-8.081 0-15.889-3.178-21.609-8.898-5.72-5.811-8.898-13.528-8.898-21.609 0-3.722.636-7.354 1.907-10.804s3.268-6.628 5.629-9.352c1.453-1.634 1.362-4.176-.272-5.538-1.635-1.453-4.177-1.362-5.63.272a38.659 38.659 0 0 0-7.081 11.894c-.454 1.18-.817 2.361-1.181 3.541l-1.997 7.263-7.445 1.272s-.091.09-.182.09c-1.18.273-2.451.454-3.631.636-1.181.091-2.452.181-3.632.181a30.618 30.618 0 0 1-21.336-8.625c-5.539-5.447-8.898-12.711-9.17-20.428l-.091-.545.091-.545c.181-4.085 1.18-8.171 2.996-11.803 1.906-3.904 4.63-7.354 7.899-10.169 1.725-1.361 1.906-3.904.544-5.538-1.361-1.634-3.904-1.907-5.538-.454a39.123 39.123 0 0 0-8.353 9.715l-10.895 18.068-9.806-18.704a30.791 30.791 0 0 1-3.45-14.163v-.091c0-8.716 3.45-17.069 9.624-23.152 6.174-6.174 14.436-9.624 23.152-9.624h46.123l-2.179 13.709a4.185 4.185 0 0 0 2.088 4.086c1.907.999 4.358.273 5.357-1.634 2.633-4.903 6.446-8.989 11.258-11.894 4.722-2.815 10.169-4.267 15.708-4.267a30.37 30.37 0 0 1 21.517 8.897zm8.989-47.393c0 8.171-3.178 15.888-8.989 21.608a30.366 30.366 0 0 1-21.517 8.898c-5.539 0-10.986-1.453-15.708-4.267-4.812-2.906-8.625-6.991-11.258-11.894-.999-1.907-3.45-2.724-5.357-1.634a4.185 4.185 0 0 0-2.088 4.085l2.179 13.71h-46.123c-8.716 0-16.978-3.45-23.152-9.624s-9.624-14.436-9.624-23.152v-.091c0-4.994 1.181-9.806 3.45-14.164l9.806-18.703 10.895 18.068a39.141 39.141 0 0 0 8.353 9.715c1.634 1.452 4.177 1.18 5.538-.454 1.362-1.635 1.181-4.177-.544-5.539-3.269-2.814-5.993-6.264-7.899-10.168a29.844 29.844 0 0 1-2.996-11.803l-.091-.545.091-.545c.272-7.717 3.631-14.981 9.17-20.428a30.615 30.615 0 0 1 21.336-8.626c1.18 0 2.451.091 3.632.182 1.18.182 2.451.363 3.631.635.091 0 .182 0 .182.091l7.445 1.271 1.997 7.264c.364 1.18.727 2.36 1.181 3.541 1.634 4.358 3.995 8.353 7.081 11.803 1.453 1.634 3.995 1.816 5.63.363 1.634-1.453 1.725-3.904.272-5.538-2.361-2.815-4.358-5.902-5.629-9.352s-1.907-7.173-1.907-10.804c0-8.081 3.178-15.889 8.898-21.609s13.528-8.898 21.609-8.898c3.994 0 7.899.727 11.621 2.27a29.433 29.433 0 0 1 9.896 6.719c2.815 2.814 5.176 6.174 6.719 9.896 1.544 3.632 2.27 7.627 2.27 11.622z" opacity="1" data-original="#fe646f" class=""></path><path fill="#fd4755" fill-rule="nonzero" d="M244.679 243.204c5.084 0 9.805-2.088 13.165-5.447a18.522 18.522 0 0 0 5.447-13.165v-66.097c0-2.543-.545-4.903-1.362-7.082a19.664 19.664 0 0 0-4.176-6.083c-1.725-1.725-3.814-3.178-5.993-4.086s-4.539-1.362-7.081-1.362a18.515 18.515 0 0 0-13.165 5.448 18.515 18.515 0 0 0-5.448 13.165c0 2.36.454 4.63 1.18 6.537.727 2.088 1.907 3.995 3.45 5.72 5.811 6.627 5.176 16.615-1.452 22.425-6.537 5.72-16.615 5.085-22.335-1.452-3.995-4.449-7.173-9.715-9.352-15.526-.545-1.453-.999-2.996-1.453-4.539a14.806 14.806 0 0 1-.998-.273c-.545-.091-1.271-.181-2.179-.363-.727 0-1.453-.091-2.27-.091a18.478 18.478 0 0 0-12.983 5.266c-3.36 3.269-5.448 7.627-5.72 12.439a19.548 19.548 0 0 0 1.906 7.172 18.944 18.944 0 0 0 4.903 6.174c6.719 5.629 7.536 15.617 1.907 22.335-5.539 6.719-15.526 7.627-22.245 1.998-4.267-3.632-7.989-7.899-10.895-12.711-1.362 2.542-2.088 5.447-2.088 8.625v.091c0 5.72 2.361 10.986 6.083 14.799 3.814 3.723 9.08 6.083 14.799 6.083h32.232c-.999-6.446 2.088-13.165 8.262-16.433 7.717-4.086 17.341-1.181 21.427 6.537 1.634 3.087 3.995 5.629 6.81 7.263 2.723 1.725 6.083 2.633 9.624 2.633zm50.299-18.612c0 13.346-5.175 25.512-13.619 34.501 8.444 8.988 13.619 21.155 13.619 34.501v66.097c0 6.719-1.362 13.256-3.814 19.248-2.633 6.174-6.355 11.713-10.895 16.343-4.63 4.54-10.168 8.353-16.342 10.895-5.993 2.451-12.53 3.813-19.248 3.813a50.23 50.23 0 0 1-35.591-14.708c-4.812-4.812-8.625-10.532-11.168-16.887-.454.09-.908.181-1.271.181a46.122 46.122 0 0 1-5.992.363c-13.619 0-25.967-5.447-35.046-14.254-6.537-6.356-11.349-14.436-13.71-23.516a51.65 51.65 0 0 1-17.25-13.982c-6.901-8.625-10.986-19.429-10.986-31.232v-.091c0-14.255 5.72-27.238 15.071-36.771-9.351-9.533-15.071-22.517-15.071-36.771v-.091c0-11.803 4.085-22.607 10.986-31.233 4.63-5.901 10.532-10.622 17.25-13.982 2.361-9.079 7.173-17.16 13.71-23.515 9.079-8.807 21.427-14.345 35.046-14.345 1.907 0 3.904.181 5.992.454.363 0 .817.09 1.271.181a48.571 48.571 0 0 1 11.168-16.887c9.079-9.079 21.699-14.799 35.591-14.799 6.718 0 13.255 1.452 19.248 3.904a50.045 50.045 0 0 1 16.342 10.895c4.54 4.63 8.262 10.169 10.895 16.343 2.452 5.992 3.814 12.529 3.814 19.248zm-31.687 69.002c0-5.175-2.088-9.805-5.447-13.165a18.522 18.522 0 0 0-13.165-5.447c-3.541 0-6.901.908-9.624 2.633-2.815 1.634-5.176 4.176-6.81 7.172-4.086 7.808-13.71 10.714-21.427 6.628-6.174-3.268-9.261-9.987-8.262-16.433h-32.232c-5.719 0-10.985 2.36-14.799 6.083-3.722 3.813-6.083 9.079-6.083 14.799v.091c0 3.087.726 6.083 2.088 8.625 2.906-4.812 6.628-9.17 10.895-12.711 6.719-5.629 16.706-4.721 22.245 1.997 5.629 6.719 4.812 16.706-1.907 22.336a18.95 18.95 0 0 0-4.903 6.173 19.559 19.559 0 0 0-1.906 7.173c.272 4.812 2.36 9.17 5.72 12.439a18.478 18.478 0 0 0 12.983 5.266c.817 0 1.543-.091 2.27-.182.908-.091 1.634-.182 2.179-.363.272 0 .635-.091.998-.182.454-1.543.908-3.087 1.453-4.539 2.179-5.811 5.357-11.077 9.352-15.526 5.72-6.628 15.798-7.263 22.335-1.453 6.628 5.811 7.263 15.798 1.452 22.426-1.543 1.634-2.723 3.632-3.45 5.72-.726 1.907-1.18 4.177-1.18 6.537 0 5.175 2.088 9.806 5.448 13.165a18.519 18.519 0 0 0 13.165 5.448c2.542 0 4.902-.545 7.081-1.362 2.179-.999 4.268-2.361 5.993-4.086 1.816-1.816 3.177-3.904 4.176-6.083.817-2.179 1.362-4.54 1.362-7.082z" opacity="1" data-original="#fd4755" class=""></path><path fill="#837683" d="M342.874 212.73c0-6.163-5.004-11.166-11.166-11.166h-89.33c-6.163 0-11.166 5.003-11.166 11.166v89.329c0 6.163 5.003 11.167 11.166 11.167h89.33c6.162 0 11.166-5.004 11.166-11.167z" opacity="1" data-original="#837683" class=""></path><path fill="#685e68" d="M321.708 313.226c6.162 0 11.166-5.004 11.166-11.167V212.73c0-6.163-5.004-11.166-11.166-11.166h10c6.162 0 11.166 5.003 11.166 11.166v89.329c0 6.163-5.004 11.167-11.166 11.167z" opacity="1" data-original="#685e68"></path><path fill="#eceff1" d="M264.006 233.697h46.073v46.073h-46.073z" opacity="1" data-original="#eceff1"></path><path fill="#d1d1d6" d="M264.006 233.697h10v46.073h-10z" opacity="1" data-original="#d1d1d6"></path></g></svg>